name C:/MyDriveSym/Projects/mobilecap/Data\Session20210827_0001\mocap\ForceDataProcessed\DJAsym1_forces.mot
datacolumns 28
datarows 15
range 1.45450000 1.46150000
endheader 
time	R_ground_force_vx	R_ground_force_vy	R_ground_force_vz	R_ground_force_px	R_ground_force_py	R_ground_force_pz	R_ground_torque_x	R_ground_torque_y	R_ground_torque_z	L_ground_force_vx	L_ground_force_vy	L_ground_force_vz	L_ground_force_px	L_ground_force_py	L_ground_force_pz	L_ground_torque_x	L_ground_torque_y	L_ground_torque_z	3_ground_force_vx	3_ground_force_vy	3_ground_force_vz	3_ground_force_px	3_ground_force_py	3_ground_force_pz	3_ground_torque_x	3_ground_torque_y	3_ground_torque_z	
          1.45450000	       -100.95917100	        670.68737300	        -36.05711600	         -0.11376400	          0.00600000	         -0.44483900	          0.00000000	         -5.75428400	          0.00000000	       -115.74672300	        484.35870000	         71.40878900	         -0.07864500	          0.00600000	         -0.79072200	          0.00000000	          3.38032100	          0.00000000	          0.00000000	          0.00000000	          0.00000000	          0.00000000	          0.00000000	          0.00000000	          0.00000000	          0.00000000	          0.00000000	
          1.45500000	       -100.75655600	        668.74057300	        -35.93033000	         -0.11368800	          0.00600000	         -0.44481000	          0.00000000	         -5.72795100	          0.00000000	       -114.77860600	        484.86559900	         71.31071900	         -0.07880400	          0.00600000	         -0.79072800	          0.00000000	          3.40206000	          0.00000000	          0.00000000	          0.00000000	          0.00000000	          0.00000000	          0.00000000	          0.00000000	          0.00000000	          0.00000000	          0.00000000	
          1.45550000	       -100.55943600	        666.74929000	        -35.80285600	         -0.11361100	          0.00600000	         -0.44478000	          0.00000000	         -5.70036900	          0.00000000	       -113.81082500	        485.34982200	         71.18790000	         -0.07896300	          0.00600000	         -0.79073200	          0.00000000	          3.42572200	          0.00000000	          0.00000000	          0.00000000	          0.00000000	          0.00000000	          0.00000000	          0.00000000	          0.00000000	          0.00000000	          0.00000000	
          1.45600000	       -100.36754400	        664.71477600	        -35.67531200	         -0.11353100	          0.00600000	         -0.44475100	          0.00000000	         -5.67148200	          0.00000000	       -112.84424900	        485.81131400	         71.04098500	         -0.07912000	          0.00600000	         -0.79073300	          0.00000000	          3.45125400	          0.00000000	          0.00000000	          0.00000000	          0.00000000	          0.00000000	          0.00000000	          0.00000000	          0.00000000	          0.00000000	          0.00000000	
          1.45650000	       -100.18063400	        662.63835400	        -35.54829800	         -0.11345000	          0.00600000	         -0.44472200	          0.00000000	         -5.64124000	          0.00000000	       -111.87976700	        486.25008900	         70.87067700	         -0.07927600	          0.00600000	         -0.79073100	          0.00000000	          3.47858600	          0.00000000	          0.00000000	          0.00000000	          0.00000000	          0.00000000	          0.00000000	          0.00000000	          0.00000000	          0.00000000	          0.00000000	
          1.45700000	        -99.99846600	        660.52143400	        -35.42240000	         -0.11336800	          0.00600000	         -0.44469200	          0.00000000	         -5.60960000	          0.00000000	       -110.91827700	        486.66618900	         70.67773000	         -0.07943100	          0.00600000	         -0.79072700	          0.00000000	          3.50763600	          0.00000000	          0.00000000	          0.00000000	          0.00000000	          0.00000000	          0.00000000	          0.00000000	          0.00000000	          0.00000000	          0.00000000	
          1.45750000	        -99.82082000	        658.36552700	        -35.29818700	         -0.11328300	          0.00600000	         -0.44466300	          0.00000000	         -5.57653200	          0.00000000	       -109.96068300	        487.05963900	         70.46295400	         -0.07958500	          0.00600000	         -0.79072000	          0.00000000	          3.53831500	          0.00000000	          0.00000000	          0.00000000	          0.00000000	          0.00000000	          0.00000000	          0.00000000	          0.00000000	          0.00000000	          0.00000000	
          1.45800000	        -99.64749500	        656.17223800	        -35.17620900	         -0.11319800	          0.00600000	         -0.44463400	          0.00000000	         -5.54201700	          0.00000000	       -109.00789600	        487.43043900	         70.22720600	         -0.07973700	          0.00600000	         -0.79071000	          0.00000000	          3.57052600	          0.00000000	          0.00000000	          0.00000000	          0.00000000	          0.00000000	          0.00000000	          0.00000000	          0.00000000	          0.00000000	          0.00000000	
          1.45850000	        -99.47830800	        653.94324600	        -35.05699500	         -0.11311100	          0.00600000	         -0.44460400	          0.00000000	         -5.50604600	          0.00000000	       -108.06082200	        487.77857200	         69.97139700	         -0.07988800	          0.00600000	         -0.79069800	          0.00000000	          3.60417800	          0.00000000	          0.00000000	          0.00000000	          0.00000000	          0.00000000	          0.00000000	          0.00000000	          0.00000000	          0.00000000	          0.00000000	
          1.45900000	        -99.31309200	        651.68029400	        -34.94105400	         -0.11302300	          0.00600000	         -0.44457400	          0.00000000	         -5.46861400	          0.00000000	       -107.12034900	        488.10403600	         69.69648200	         -0.08003700	          0.00600000	         -0.79068400	          0.00000000	          3.63918800	          0.00000000	          0.00000000	          0.00000000	          0.00000000	          0.00000000	          0.00000000	          0.00000000	          0.00000000	          0.00000000	          0.00000000	
          1.45950000	        -99.15169900	        649.38517300	        -34.82887700	         -0.11293400	          0.00600000	         -0.44454400	          0.00000000	         -5.42972100	          0.00000000	       -106.18734500	        488.40683800	         69.40346300	         -0.08018400	          0.00600000	         -0.79066700	          0.00000000	          3.67548400	          0.00000000	          0.00000000	          0.00000000	          0.00000000	          0.00000000	          0.00000000	          0.00000000	          0.00000000	          0.00000000	          0.00000000	
          1.46000000	        -98.99400600	        647.05969200	        -34.72093600	         -0.11284400	          0.00600000	         -0.44451400	          0.00000000	         -5.38936600	          0.00000000	       -105.26265800	        488.68696800	         69.09337900	         -0.08033000	          0.00600000	         -0.79064800	          0.00000000	          3.71299200	          0.00000000	          0.00000000	          0.00000000	          0.00000000	          0.00000000	          0.00000000	          0.00000000	          0.00000000	          0.00000000	          0.00000000	
          1.46050000	        -98.83991500	        644.70565700	        -34.61767300	         -0.11275300	          0.00600000	         -0.44448300	          0.00000000	         -5.34754400	          0.00000000	       -104.34712300	        488.94438500	         68.76729900	         -0.08047400	          0.00600000	         -0.79062700	          0.00000000	          3.75162600	          0.00000000	          0.00000000	          0.00000000	          0.00000000	          0.00000000	          0.00000000	          0.00000000	          0.00000000	          0.00000000	          0.00000000	
          1.46100000	        -98.68934700	        642.32488100	        -34.51950300	         -0.11266100	          0.00600000	         -0.44445200	          0.00000000	         -5.30425600	          0.00000000	       -103.44157400	        489.17900700	         68.42632400	         -0.08061500	          0.00600000	         -0.79060400	          0.00000000	          3.79127600	          0.00000000	          0.00000000	          0.00000000	          0.00000000	          0.00000000	          0.00000000	          0.00000000	          0.00000000	          0.00000000	          0.00000000	
          1.46150000	        -98.54222200	        639.91920000	        -34.42680800	         -0.11256900	          0.00600000	         -0.44442100	          0.00000000	         -5.25950500	          0.00000000	       -102.54684400	        489.39072800	         68.07158500	         -0.08075500	          0.00600000	         -0.79058000	          0.00000000	          3.83180400	          0.00000000	          0.00000000	          0.00000000	          0.00000000	          0.00000000	          0.00000000	          0.00000000	          0.00000000	          0.00000000	          0.00000000	
